<svg xmlns="http://www.w3.org/2000/svg" xmlns:xlink="http://www.w3.org/1999/xlink" width="40" height="40" version="1.1" viewBox="0 0 40 40"><title>loupe</title><desc>Created with Sketch.</desc><g id="Page-1" fill="none" fill-rule="evenodd" stroke="none" stroke-width="1"><g id="Desktop" fill="#000" transform="translate(-721.000000, -299.000000)"><path id="loupe" d="M736.637,299 C745.258,299 752.273,306.014 752.273,314.636 C752.273,318.90625 750.552249,322.782308 747.767878,325.607166 L747.6652,325.7 C748.4462,324.919 749.7122,324.919 750.4932,325.7 L760.3782,335.586 C761.1592,336.367 761.1592,337.633 760.3782,338.414 C759.9872,338.805 759.4762,339 758.9642,339 C758.4522,339 757.9412,338.805 757.5502,338.414 L747.6652,328.528 C746.914066,327.777827 746.885342,326.577188 747.57903,325.791674 C744.758815,328.562774 740.893675,330.273 736.637,330.273 C728.015,330.273 721,323.258 721,314.636 C721,310.828 722.386,307.158 724.901,304.303 C727.87,300.933 732.149,299 736.637,299 Z M736.637,303 C733.296,303 730.113,304.438 727.903,306.947 C726.031,309.071 725,311.802 725,314.636 C725,321.053 730.22,326.273 736.637,326.273 C743.053,326.273 748.273,321.053 748.273,314.636 C748.273,308.22 743.053,303 736.637,303 Z"/></g></g></svg>