<svg xmlns="http://www.w3.org/2000/svg" xmlns:xlink="http://www.w3.org/1999/xlink" width="467" height="467" version="1.1" viewBox="0 0 467 467"><title>boostnote_logotype_rgb-icon-green</title><desc>Created with Sketch.</desc><defs><linearGradient id="linearGradient-1" x1="50%" x2="50%" y1="0%" y2="100%"><stop offset="0%" stop-color="#004654"/><stop offset="100%" stop-color="#007C8D"/></linearGradient></defs><g id="Page-1" fill="none" fill-rule="evenodd" stroke="none" stroke-width="1"><g id="dark-cyan-(gradient)" fill-rule="nonzero" transform="translate(-10.000000, -10.000000)"><g id="boostnote_logotype_rgb-icon-green" transform="translate(10.000000, 10.000000)"><g id="g10" transform="translate(233.833323, 233.499977) scale(-1, 1) rotate(-180.000000) translate(-233.833323, -233.499977) translate(0.333323, -0.000023)"><g id="g12"><path id="path14" fill="url(#linearGradient-1)" d="M80.4666647,386.19999 C-3.95866657,301.774659 -3.95866657,164.891996 80.4666647,80.4666647 C164.891996,-3.95866657 301.774659,-3.95866657 386.19999,80.4666647 C470.625322,164.891996 470.625322,301.774659 386.19999,386.19999 C301.774659,470.625322 164.891996,470.625322 80.4666647,386.19999"/><path id="path16" fill="#FFF" d="M68.2639983,398.402657 C-22.7546661,307.382659 -22.7546661,159.283996 68.2639983,68.2639983 C159.283996,-22.7546661 307.382659,-22.7546661 398.402657,68.2639983 C489.421321,159.283996 489.421321,307.382659 398.402657,398.402657 C307.382659,489.421321 159.283996,489.421321 68.2639983,398.402657 Z M80.4666647,386.19999 C164.891996,470.625322 301.774659,470.625322 386.19999,386.19999 C470.625322,301.774659 470.625322,164.891996 386.19999,80.4666647 C301.774659,-3.95866657 164.891996,-3.95866657 80.4666647,80.4666647 C-3.95866657,164.891996 -3.95866657,301.774659 80.4666647,386.19999 L80.4666647,386.19999 Z"/><g id="Group" fill="#FFF" transform="translate(98.101331, 98.275998)"><path id="path18" d="M101.386664,75.3799981 C101.426664,75.4786648 101.465331,75.5773314 101.503997,75.6759981 C102.539997,78.299998 102.911997,80.919998 102.825331,83.4506646 C89.8626644,72.7373315 76.0666648,65.8879984 64.1679984,63.8719984 C66.182665,75.7693314 73.0319982,89.5639978 83.7426646,102.526664 C81.203998,102.614664 78.5746647,102.238664 75.9426648,101.198664 C75.8239981,101.151997 75.7053314,101.103997 75.5866648,101.057331 C66.998665,97.6066642 58.8413319,92.3186644 51.749332,85.2266645 C36.5106658,69.9879983 29.6066659,49.8253321 31.3426659,31.0466659 C50.1199987,29.3119993 70.2826649,36.2159991 85.5213312,51.4546654 C92.637331,58.5706652 97.9359976,66.7599983 101.386664,75.3799981"/><polygon id="path20" points="163.113 0 126.699 88.609 239.649 239.568"/><polygon id="path22" fill-opacity=".8" points="239.649 239.568 88.889 126.419 0 163.033"/><polygon id="path24" points="239.649 239.568 125.589 125.508 88.889 126.419"/><polygon id="path26" fill-opacity=".8" points="126.699 88.609 125.589 125.508 239.649 239.568"/></g></g></g></g></g></g></svg>